<svg width="24" height="23" viewBox="0 0 24 23" fill="none" xmlns="http://www.w3.org/2000/svg">
<path d="M23.2233 11.3198L12.6367 0.740933C12.5605 0.664557 12.47 0.603965 12.3703 0.562622C12.2706 0.52128 12.1638 0.5 12.0559 0.5C11.948 0.5 11.8411 0.52128 11.7414 0.562622C11.6418 0.603965 11.5512 0.664557 11.475 0.740933L0.888466 11.3198C0.580045 11.6282 0.405273 12.0471 0.405273 12.484C0.405273 13.3913 1.14291 14.129 2.05018 14.129H3.16564V21.6775C3.16564 22.1325 3.53317 22.5 3.98809 22.5H10.4109V16.7428H13.2895V22.5H20.1236C20.5785 22.5 20.9461 22.1325 20.9461 21.6775V14.129H22.0615C22.4985 14.129 22.9174 13.9568 23.2258 13.6458C23.8658 13.0032 23.8658 11.9623 23.2233 11.3198Z" fill="white"/>
</svg>
