<svg width="21" height="21" viewBox="0 0 21 21" fill="none" xmlns="http://www.w3.org/2000/svg">
<path d="M19.7056 19.5L13.7056 13.5M1.70557 8.5C1.70557 9.41925 1.88663 10.3295 2.23841 11.1788C2.59019 12.0281 3.10581 12.7997 3.75582 13.4497C4.40583 14.0998 5.1775 14.6154 6.02678 14.9672C6.87606 15.3189 7.78631 15.5 8.70557 15.5C9.62482 15.5 10.5351 15.3189 11.3844 14.9672C12.2336 14.6154 13.0053 14.0998 13.6553 13.4497C14.3053 12.7997 14.8209 12.0281 15.1727 11.1788C15.5245 10.3295 15.7056 9.41925 15.7056 8.5C15.7056 7.58075 15.5245 6.6705 15.1727 5.82122C14.8209 4.97194 14.3053 4.20026 13.6553 3.55025C13.0053 2.90024 12.2336 2.38463 11.3844 2.03284C10.5351 1.68106 9.62482 1.5 8.70557 1.5C7.78631 1.5 6.87606 1.68106 6.02678 2.03284C5.1775 2.38463 4.40583 2.90024 3.75582 3.55025C3.10581 4.20026 2.59019 4.97194 2.23841 5.82122C1.88663 6.6705 1.70557 7.58075 1.70557 8.5Z" stroke="white" stroke-width="2" stroke-linecap="round" stroke-linejoin="round"/>
</svg>
