<svg width="19" height="23" viewBox="0 0 19 23" fill="none" xmlns="http://www.w3.org/2000/svg">
<path d="M9.65057 0.5C10.3072 0.5 10.9574 0.629329 11.564 0.880602C12.1706 1.13188 12.7218 1.50017 13.1861 1.96447C13.6504 2.42876 14.0187 2.97995 14.27 3.58658C14.5212 4.19321 14.6506 4.84339 14.6506 5.5V9.5C14.6506 10.8261 14.1238 12.0979 13.1861 13.0355C12.2484 13.9732 10.9766 14.5 9.65057 14.5C8.32448 14.5 7.05271 13.9732 6.11503 13.0355C5.17735 12.0979 4.65057 10.8261 4.65057 9.5V5.5C4.65057 4.17392 5.17735 2.90215 6.11503 1.96447C7.05271 1.02678 8.32448 0.5 9.65057 0.5ZM0.705566 10.5H2.72057C2.96286 12.1648 3.79644 13.6867 5.0688 14.7873C6.34116 15.8879 7.96725 16.4936 9.64957 16.4936C11.3319 16.4936 12.958 15.8879 14.2303 14.7873C15.5027 13.6867 16.3363 12.1648 16.5786 10.5H18.5946C18.3672 12.5287 17.4572 14.4199 16.0138 15.8635C14.5704 17.3071 12.6793 18.2174 10.6506 18.445V22.5H8.65057V18.445C6.6217 18.2176 4.73035 17.3074 3.28674 15.8638C1.84313 14.4202 0.932979 12.5289 0.705566 10.5Z" fill="white"/>
</svg>
